<svg width="19" height="20" viewBox="0 0 19 20" fill="none" xmlns="http://www.w3.org/2000/svg">
<path d="M1.99982 12.1441V17.3941C1.99982 18.0963 1.99982 18.4475 2.16835 18.6997C2.24131 18.8089 2.33506 18.9026 2.44425 18.9756C2.69647 19.1441 3.04759 19.1441 3.74982 19.1441H4.24982C4.95205 19.1441 5.30316 19.1441 5.55539 18.9756C5.66458 18.9026 5.75833 18.8089 5.83129 18.6997C5.99982 18.4475 5.99982 18.0963 5.99982 17.3941V4.1441" stroke="white" stroke-width="1.5" stroke-linejoin="round"/>
<path d="M5.99982 9.1441V17.3941C5.99982 18.0963 5.99982 18.4475 6.16835 18.6997C6.24131 18.8089 6.33506 18.9026 6.44425 18.9756C6.69647 19.1441 7.04759 19.1441 7.74982 19.1441H14.2498C14.952 19.1441 15.3032 19.1441 15.5554 18.9756C15.6646 18.9026 15.7583 18.8089 15.8313 18.6997C15.9998 18.4475 15.9998 18.0963 15.9998 17.3941V9.1441" stroke="white" stroke-width="1.5" stroke-linejoin="round"/>
<path d="M0.999817 12.6441L5.99982 9.6441" stroke="white" stroke-width="1.5" stroke-linecap="round"/>
<path d="M4.50018 3.64404L18.0002 10.144" stroke="white" stroke-width="1.5" stroke-linecap="round"/>
<path d="M12.9998 19.1441V15.0191C12.9998 14.668 12.9998 14.4924 12.9156 14.3663C12.8791 14.3117 12.8322 14.2648 12.7776 14.2284C12.6515 14.1441 12.4759 14.1441 12.1248 14.1441H9.87482C9.5237 14.1441 9.34814 14.1441 9.22203 14.2284C9.16744 14.2648 9.12056 14.3117 9.08408 14.3663C8.99982 14.4924 8.99982 14.668 8.99982 15.0191V19.1441" stroke="white" stroke-width="1.5"/>
</svg>
