<svg width="17" height="19" viewBox="0 0 17 19" fill="none" xmlns="http://www.w3.org/2000/svg">
<path d="M6.82233 3.25427C7.02487 0.956625 10.276 0.896697 10.398 3.18836C10.4675 4.49415 11.7898 5.26859 12.9394 4.67678C14.9568 3.63815 16.5312 6.52423 14.6709 7.85098C13.611 8.60697 13.5829 10.2051 14.6171 10.9225C16.432 12.1815 14.7552 15.1275 12.773 14.1626C11.6434 13.6128 10.2931 14.4365 10.1777 15.7457C9.97513 18.0434 6.72404 18.1033 6.60202 15.8116C6.53249 14.5059 5.21017 13.7314 4.06062 14.3232C2.04318 15.3619 0.468792 12.4758 2.32906 11.149C3.38905 10.393 3.41709 8.79487 2.38295 8.07749C0.568046 6.81848 2.24476 3.87247 4.22705 4.83737C5.35656 5.38718 6.70692 4.56347 6.82233 3.25427Z" stroke="white" stroke-width="1.5"/>
<path d="M8.5 7.5C9.60457 7.5 10.5 8.39543 10.5 9.5V9.5C10.5 10.6046 9.60457 11.5 8.5 11.5V11.5C7.39543 11.5 6.5 10.6046 6.5 9.5V9.5C6.5 8.39543 7.39543 7.5 8.5 7.5V7.5Z" stroke="white" stroke-width="1.5"/>
</svg>
