<svg width="19" height="19" viewBox="0 0 19 19" fill="none" xmlns="http://www.w3.org/2000/svg">
<path d="M11 4.64404L5.75 4.64404C4.23122 4.64404 3 5.87526 3 7.39404V7.39404C3 8.91283 4.23122 10.144 5.75 10.144L13.75 10.144C15.2688 10.144 16.5 11.3753 16.5 12.894V12.894C16.5 14.4128 15.2688 15.644 13.75 15.644L7.5 15.644" stroke="white" stroke-width="1.5" stroke-linecap="round"/>
<path d="M14.5 3.27179C14.5 1.10145 17.5 1.10147 17.5 3.27179C17.5 4.28523 16.6924 5.0887 16.2623 5.44466C16.108 5.57242 15.8921 5.57243 15.7377 5.44467C15.3077 5.08871 14.5 4.28524 14.5 3.27179Z" stroke="white" stroke-width="1.5"/>
<path d="M1.5 15.2718C1.5 13.1015 4.5 13.1015 4.5 15.2718C4.5 16.2852 3.69236 17.0887 3.26235 17.4447C3.10801 17.5724 2.89207 17.5724 2.73773 17.4447C2.3077 17.0887 1.5 16.2852 1.5 15.2718Z" stroke="white" stroke-width="1.5"/>
</svg>
