<svg width="23" height="30" viewBox="0 0 23 30" fill="none" xmlns="http://www.w3.org/2000/svg">
<path opacity="0.9" d="M13.25 29H11.5H9.75" stroke="#258FD1" stroke-width="1.5" stroke-linecap="round"/>
<path d="M4.5 10.4178V7.42565C4.5 4.94794 5.95499 2.70121 8.21592 1.68769C9.22721 1.23436 10.3229 1 11.4312 1H11.5688C12.6771 1 13.7728 1.23436 14.7841 1.68769C17.045 2.70121 18.5 4.94795 18.5 7.42566V10.4178C18.5 12.2825 18.9154 14.1238 19.716 15.8078L21.2615 19.0587C21.7248 20.0333 21.6879 21.1718 21.1623 22.1142C20.5991 23.1241 19.5333 23.75 18.377 23.75H4.623C3.46667 23.75 2.40093 23.1241 1.83772 22.1142C1.31215 21.1718 1.27516 20.0333 1.73847 19.0587L3.28398 15.8078C4.0846 14.1238 4.5 12.2825 4.5 10.4178Z" stroke="#258FD1" stroke-width="1.5"/>
</svg>
