<svg width="15" height="17" viewBox="0 0 15 17" fill="none" xmlns="http://www.w3.org/2000/svg">
<path d="M7.51793 6.75C8.46613 6.75 8.94023 6.75 9.38022 6.51629C9.64344 6.37648 9.97364 6.07023 10.1328 5.81826C10.3989 5.39708 10.4256 5.04324 10.4789 4.33557C10.5082 3.94763 10.5071 3.56594 10.4751 3.17106C10.4175 2.45801 10.3887 2.10148 10.1289 1.68726C9.96526 1.42644 9.6305 1.11765 9.35734 0.975598C8.92354 0.75 8.45334 0.75 7.51294 0.75V0.75C6.53627 0.75 6.04794 0.75 5.6082 0.983383C5.32774 1.13223 4.99696 1.4454 4.83302 1.71731C4.57596 2.14365 4.55506 2.52571 4.51326 3.28982C4.49635 3.59898 4.49567 3.90116 4.51092 4.20586C4.54931 4.97283 4.56851 5.35631 4.83198 5.78942C4.9922 6.05281 5.3169 6.36166 5.58797 6.50851C6.03371 6.75 6.52845 6.75 7.51793 6.75V6.75Z" stroke="white" stroke-width="1.5"/>
<path d="M14 16.25L14.083 15.3652C14.2267 13.832 14.2986 13.0654 13.7254 12.0004C13.5456 11.6664 13.0292 11.0401 12.7356 10.7999C11.7994 10.0342 11.2598 9.981 10.1805 9.87452C9.40489 9.798 8.51415 9.75 7.5 9.75C6.48584 9.75 5.59511 9.798 4.81945 9.87452C3.74021 9.981 3.20059 10.0342 2.26443 10.7999C1.97077 11.0401 1.45441 11.6664 1.27462 12.0004C0.701444 13.0654 0.773312 13.832 0.917049 15.3652L1 16.25" stroke="white" stroke-width="1.5" stroke-linecap="round"/>
</svg>
